<svg width="163" height="142" viewBox="0 0 163 142" fill="none" xmlns="http://www.w3.org/2000/svg">
<path d="M163 142L80.7142 0V16.7522L153.121 142H163Z" fill="#E9C62C"/>
<path d="M80.7142 37.6643V22.8234L131.567 110.407H98.9001L75.3258 69.707L62.1915 92.5305H85.0923L89.3581 99.9509H49.2817L75.3258 54.9786L103.054 102.874H106.534L80.7142 58.3515V43.5107L115.065 102.874H118.545L80.7142 37.6643Z" fill="#E9C62C"/>
<path d="M75.438 28.2201V9.44418L0 142H149.753L133.139 113.33H124.607L136.619 134.13H14.1446L75.438 28.2201Z" fill="#E9C62C"/>
<path d="M95.3079 110.407L91.042 102.874H47.5978L43.2197 110.407H95.3079Z" fill="#E9C62C"/>
<path d="M75.438 48.9074V34.2914L25.2583 120.863H116.974L118.545 123.786H23.5744L19.3085 131.207H131.455L121.127 113.33H38.168L75.438 48.9074Z" fill="#E9C62C"/>
</svg>
